<svg viewBox="0 0 94 71" fill="none" xmlns="http://www.w3.org/2000/svg">
<path d="M38.4742 62.347C33.8182 60.4513 30.0049 56.9135 27.3326 52.7936C24.5663 48.529 23 43.6067 23 39.1667V38.6667H23.5H38.6001V0.5H0.5V28.9481C0.5 50.8817 14.799 65.7914 34.9621 69.9319L38.4742 62.347ZM93.3038 62.347C88.6496 60.4513 84.8373 56.9134 82.1654 52.7936C79.3996 48.529 77.8333 43.6067 77.8333 39.1667V38.6667H78.3333H93.5V0.5H55.3999V28.9481C55.3999 50.8827 69.6342 65.7916 89.7952 69.9319L93.3038 62.347ZM88.3162 66.1826L88.1404 66.5621L87.7358 66.456C69.5225 61.6807 58.3166 47.5406 58.3166 28.9481V3.91666V3.41666H58.8166H90.0833H90.5833V3.91666V35.25V35.75H90.0833H74.9167V39.1667C74.9167 47.4864 79.8504 58.1536 89.0577 63.5033L89.4518 63.7323L89.2601 64.1459L88.3162 66.1826ZM33.483 66.1862L33.3073 66.566L32.9025 66.4599C14.6509 61.6771 3.41667 47.5375 3.41667 28.9481V3.91666V3.41666H3.91667H35.1834H35.6834V3.91666V35.25V35.75H35.1834H20.0833V39.1667C20.0833 47.4864 25.0171 58.1536 34.2244 63.5033L34.6182 63.7322L34.427 64.1456L33.483 66.1862Z" fill="#1A0036" stroke="#1A0036"/>
</svg>
