<svg width="52" height="52" viewBox="0 0 52 52" fill="none" xmlns="http://www.w3.org/2000/svg">
<path d="M49.3415 2.89683C48.4524 1.99597 47.3851 1.27563 46.2024 0.778243C45.0197 0.28086 43.7456 0.0165017 42.4551 0.000748178C41.1647 -0.0150054 39.884 0.218165 38.6886 0.686516C37.4932 1.15487 36.4073 1.84893 35.4947 2.72779L5.02201 32.0751C3.95809 33.1009 3.2196 34.3974 2.89298 35.8128L0.0391124 48.1778C-0.0205782 48.4351 -0.0118289 48.7027 0.064549 48.9558C0.140927 49.209 0.282458 49.4395 0.476013 49.6259C0.669568 49.8123 0.908874 49.9486 1.17173 50.0221C1.43459 50.0957 1.71247 50.1041 1.97961 50.0466L14.7408 47.3138C16.2601 46.9881 17.6516 46.2518 18.7518 45.1914L20.1755 43.8203C19.8116 42.581 19.5935 41.3063 19.5254 40.02L16.4537 42.9782C15.7905 43.6178 14.9516 44.062 14.0354 44.2586L3.7641 46.4561L6.0654 36.4921C6.25717 35.6563 6.69273 34.8925 7.32331 34.2883L33.3137 9.25776L42.3921 17.9978L38.3096 21.9296C39.6683 21.9984 40.9912 22.2113 42.2556 22.5556L49.1693 15.8973C50.9522 14.1795 51.9677 11.8588 51.9992 9.43017C52.0308 7.00153 51.076 4.65711 49.3383 2.89683H49.3415ZM37.7928 4.94097C38.9996 3.79526 40.6279 3.15557 42.3225 3.16142C44.0171 3.16728 45.6405 3.81818 46.8388 4.9722C48.037 6.12621 48.7129 7.68971 48.719 9.32173C48.7251 10.9537 48.0608 12.5219 46.8712 13.6841L44.6902 15.7846L35.6117 7.04458L37.7928 4.94097ZM29.4717 29.5552C29.7057 30.3587 29.7706 31.1992 29.6624 32.0273C29.5543 32.8553 29.2754 33.6542 28.842 34.3769C28.4086 35.0997 27.8296 35.7316 27.139 36.2357C26.4483 36.7398 25.66 37.1058 24.8203 37.3122L23.3219 37.6816C23.2136 38.7398 23.2245 39.8062 23.3544 40.8621L24.492 41.1219C25.3538 41.3182 26.1649 41.6819 26.8755 42.1909C27.586 42.6998 28.1812 43.3432 28.6243 44.0816C29.0675 44.82 29.3493 45.6378 29.4525 46.4848C29.5558 47.3318 29.4782 48.1902 29.2247 49.0074L28.8119 50.3284C29.6472 50.967 30.5573 51.5117 31.526 51.9499L32.5823 50.8731C33.1905 50.2529 33.9238 49.7589 34.7373 49.4215C35.5508 49.0841 36.4274 48.9104 37.3131 48.911C38.1988 48.9116 39.0751 49.0865 39.8881 49.4249C40.7012 49.7634 41.4338 50.2583 42.0411 50.8793L43.1365 52C44.0856 51.5774 44.9827 51.0546 45.8083 50.4411L45.3013 48.7006C45.0667 47.897 45.0013 47.0564 45.109 46.2282C45.2167 45.3999 45.4953 44.6008 45.9283 43.8777C46.3614 43.1547 46.9402 42.5223 47.6308 42.0179C48.3213 41.5135 49.1096 41.1471 49.9494 40.9404L51.4445 40.5741C51.5533 39.5149 51.5424 38.4474 51.412 37.3905L50.2809 37.1338C49.4188 36.9376 48.6073 36.5737 47.8965 36.0646C47.1856 35.5554 46.5904 34.9117 46.1472 34.173C45.704 33.4343 45.4222 32.6161 45.3192 31.7687C45.2163 30.9213 45.2942 30.0626 45.5483 29.2452L45.9578 27.9274C45.1203 27.2881 44.2097 26.743 43.2437 26.3027L42.1873 27.3795C41.5794 27.9999 40.8462 28.4941 40.0329 28.8318C39.2195 29.1694 38.343 29.3435 37.4573 29.3432C36.5715 29.3429 35.6952 29.1683 34.8821 28.8301C34.0689 28.4919 33.3361 27.9972 32.7286 27.3764L31.6332 26.2557C30.6864 26.6772 29.7913 27.199 28.9646 27.8115L29.4717 29.5552ZM37.38 42.2551C36.5179 42.2551 35.6911 41.9253 35.0816 41.3382C34.472 40.7512 34.1295 39.955 34.1295 39.1247C34.1295 38.2945 34.472 37.4983 35.0816 36.9112C35.6911 36.3242 36.5179 35.9944 37.38 35.9944C38.242 35.9944 39.0688 36.3242 39.6784 36.9112C40.2879 37.4983 40.6304 38.2945 40.6304 39.1247C40.6304 39.955 40.2879 40.7512 39.6784 41.3382C39.0688 41.9253 38.242 42.2551 37.38 42.2551Z" fill="#1A0036"/>
</svg>
