<svg width="254" height="43" viewBox="0 0 254 43" fill="none" xmlns="http://www.w3.org/2000/svg">
<path d="M51.3666 2.23795C51.5829 2.52516 51.7498 2.71664 51.8858 2.93364C54.5681 7.05039 57.2381 11.1735 59.9267 15.2839C61.9168 18.3347 63.9193 21.3792 65.9156 24.4237C67.5905 26.9767 69.6919 29.1021 72.2939 30.602C74.6796 31.9742 77.2384 32.5614 79.9269 31.5594C82.9245 30.4424 84.927 28.2851 85.8479 25.1449C86.9665 21.3218 86.4845 17.7092 84.0555 14.5244C82.4857 12.4564 80.3719 11.3395 77.8132 11.1927C74.0801 10.982 70.7241 12.1181 67.6462 14.2435C67.4546 14.3776 67.2568 14.4924 66.9601 14.6903C66.7809 14.4222 66.5831 14.1669 66.4348 13.8925C65.0627 11.3203 63.6968 8.74815 62.3371 6.1696C61.9786 5.49943 62.0095 5.3271 62.5967 4.90585C67.0714 1.68905 72.0282 0.00405253 77.4856 0.0295827C81.5215 0.0487304 85.1062 1.42736 88.1903 4.12718C93.9938 9.21407 96.3363 15.7817 95.7985 23.5046C95.3474 29.9637 92.6526 35.2804 87.8256 39.4035C86.2743 40.7311 84.4387 41.5481 82.5227 42.18C79.9887 43.0161 77.4176 43.1246 74.7785 42.8054C70.6376 42.3012 67.1517 40.4439 63.9873 37.7313C61.5398 35.6314 59.6362 33.0784 57.8685 30.3914C53.3753 23.5493 48.9068 16.688 44.432 9.8268C43.8016 8.86303 43.8387 8.85665 44.6916 8.12266C46.6694 6.41213 48.6163 4.65693 50.5755 2.92726C50.8165 2.71664 51.0576 2.50601 51.3666 2.24433V2.23795Z" fill="#FEFDFD"/>
<path d="M29.0219 28.4582C29.2196 28.7965 29.368 29.0454 29.5101 29.3071C30.8142 31.758 32.1121 34.2217 33.4286 36.6726C33.9539 37.6491 33.9107 37.7895 33.0516 38.3703C31.2407 39.5958 29.3556 40.668 27.3284 41.4403C23.9106 42.736 20.3815 43.1508 16.7349 42.8955C13.4716 42.6658 10.6409 41.3637 8.1069 39.4107C5.83864 37.6619 4.08337 35.3769 2.74219 32.7728C0.789135 28.9943 -0.162669 24.967 0.0227474 20.697C0.263789 15.157 2.00052 10.1722 5.67177 6.05546C9.31211 1.97062 13.8239 -0.205826 19.269 0.0494758C23.1751 0.23457 26.7227 1.56214 29.9551 3.85348C33.7005 6.50862 36.4014 10.1211 38.886 13.9571C41.0183 17.2377 43.1815 20.4928 45.3138 23.767C47.4646 27.0732 49.5907 30.3985 51.7292 33.7111C51.8157 33.8515 51.8961 33.9983 52.0197 34.2025C50.9319 35.1982 49.8688 36.1811 48.7934 37.1512C47.6562 38.1661 46.5066 39.1681 45.3632 40.1766C44.6772 40.7829 44.3929 40.7446 43.8923 39.966C41.865 36.8194 39.8625 33.6536 37.8168 30.5198C35.1839 26.4924 32.5695 22.4458 29.8562 18.4759C28.3667 16.2931 26.5991 14.3464 24.3617 12.9103C22.0997 11.4615 19.6522 10.8743 17.044 11.2828C14.7695 11.6402 13.0452 13.0444 11.6545 14.8761C8.74968 18.7057 8.65079 25.4074 12.5631 29.3773C14.6521 31.5027 17.2108 32.3133 20.1033 31.975C23.1133 31.624 25.8574 30.5134 28.4038 28.8348C28.5645 28.7263 28.7376 28.6369 29.0342 28.4582H29.0219Z" fill="#FEFDFD"/>
<path d="M109.72 7.1493V35.0293H106.08V7.1493H109.72Z" fill="#FEFDFD"/>
<path d="M137.844 35.0293H134.204L119.564 12.8293V35.0293H115.924V7.1093H119.564L134.204 29.2693V7.1093H137.844V35.0293Z" fill="#FEFDFD"/>
<path d="M159.809 7.1493V10.1093H147.689V19.5093H157.529V22.4693H147.689V35.0293H144.049V7.1493H159.809Z" fill="#FEFDFD"/>
<path d="M167.845 7.1493V35.0293H164.205V7.1493H167.845Z" fill="#FEFDFD"/>
<path d="M195.969 35.0293H192.329L177.689 12.8293V35.0293H174.049V7.1093H177.689L192.329 29.2693V7.1093H195.969V35.0293Z" fill="#FEFDFD"/>
<path d="M205.814 7.1493V35.0293H202.174V7.1493H205.814Z" fill="#FEFDFD"/>
<path d="M229.178 7.1493V10.1093H221.577V35.0293H217.938V10.1093H210.298V7.1493H229.178Z" fill="#FEFDFD"/>
<path d="M253.178 7.1493L244.098 24.5093V35.0293H240.458V24.5093L231.338 7.1493H235.378L242.258 21.2693L249.138 7.1493H253.178Z" fill="#FEFDFD"/>
</svg>
